<?xml version="1.0" encoding="utf-8"?>
<svg viewBox="0 0 500 500" xmlns="http://www.w3.org/2000/svg">
	<path fill="#0416FF" opacity="1.000000" stroke="none" d="M 309.5 240.37 C 309.5 248.057 309.5 255.745 309.203 263.588 C 303.828 275.073 296.267 283.91 284.273 288.321 C 284.226 288.338 284.419 289.006 284.5 289.37 C 276.812 289.37 269.125 289.37 261.282 289.073 C 257.786 286.934 254.505 284.967 251.064 283.336 C 250.197 282.925 248.718 283.359 247.697 283.807 C 245.209 284.896 242.789 286.157 240.429 287.503 C 239.928 287.789 239.8 288.73 239.5 289.37 C 231.812 289.37 224.125 289.37 216.282 289.073 C 204.796 283.698 195.96 276.137 191.549 264.143 C 191.532 264.096 190.864 264.289 190.5 264.37 C 190.5 256.682 190.5 248.995 190.797 241.152 C 196.172 229.666 203.733 220.829 215.727 216.419 C 215.774 216.402 215.581 215.734 215.5 215.37 C 223.188 215.37 230.875 215.37 238.718 215.666 C 242.214 217.805 245.495 219.773 248.936 221.404 C 249.803 221.815 251.282 221.38 252.303 220.933 C 254.791 219.843 257.211 218.583 259.571 217.237 C 260.072 216.951 260.2 216.009 260.5 215.37 C 268.188 215.37 275.875 215.37 283.718 215.666 C 295.204 221.042 304.04 228.602 308.451 240.597 C 308.468 240.643 309.136 240.451 309.5 240.37 M 212.884 225.046 C 197.354 234.461 192.022 252.256 200.278 267.179 C 204.332 274.505 210.383 279.551 218.349 281.983 C 230.374 285.655 240.889 282.131 249.948 274.243 C 266.484 286.392 282.685 286.225 294.584 274.115 C 305.437 263.07 306.548 245.573 297.075 233.49 C 292.283 227.377 286.071 223.496 278.382 221.97 C 267.386 219.786 258.167 223.602 249.931 230.578 C 238.791 220.983 226.793 218.642 212.884 225.046 Z"/>
	<path fill="#F7F9FB" opacity="1.000000" stroke="none" d="M 213.198 224.833 C 226.793 218.642 238.791 220.983 249.931 230.578 C 258.167 223.602 267.386 219.786 278.382 221.97 C 286.071 223.496 292.283 227.377 297.075 233.49 C 306.548 245.573 305.437 263.07 294.584 274.115 C 282.685 286.225 266.484 286.392 249.948 274.243 C 240.889 282.131 230.374 285.655 218.349 281.983 C 210.383 279.551 204.332 274.505 200.278 267.179 C 192.022 252.256 197.354 234.461 213.198 224.833 Z"/>
</svg>